<?xml version="1.0" encoding="iso-8859-1"?>
<!-- Generator: Adobe Illustrator 19.2.1, SVG Export Plug-In . SVG Version: 6.00 Build 0)  -->
<svg version="1.1" id="Layer_1" xmlns="http://www.w3.org/2000/svg" xmlns:xlink="http://www.w3.org/1999/xlink" x="0px" y="0px"
	 viewBox="0 0 40 40" style="enable-background:new 0 0 40 40;" xml:space="preserve">
<g>
	<rect x="6.5" y="1.5" style="fill:#B08159;" width="27" height="37"/>
	<g>
		<path style="fill:#704E34;" d="M33,2v36H7V2H33 M34,1H6v38h28V1L34,1z"/>
	</g>
</g>
<g>
	<rect x="22.5" y="5.5" style="fill:#D6AA70;" width="7" height="13"/>
	<g>
		<path style="fill:#8C6A3F;" d="M29,6v12h-6V6H29 M30,5h-8v14h8V5L30,5z"/>
	</g>
</g>
<g>
	<rect x="10.5" y="5.5" style="fill:#D6AA70;" width="7" height="13"/>
	<g>
		<path style="fill:#8C6A3F;" d="M17,6v12h-6V6H17 M18,5h-8v14h8V5L18,5z"/>
	</g>
</g>
<g>
	<rect x="22.5" y="23.5" style="fill:#D6AA70;" width="7" height="11"/>
	<g>
		<path style="fill:#8C6A3F;" d="M29,24v10h-6V24H29 M30,23h-8v12h8V23L30,23z"/>
	</g>
</g>
<g>
	<rect x="10.5" y="23.5" style="fill:#D6AA70;" width="7" height="11"/>
	<g>
		<path style="fill:#8C6A3F;" d="M17,24v10h-6V24H17 M18,23h-8v12h8V23L18,23z"/>
	</g>
</g>
<circle style="fill:#FFD7BD;" cx="30" cy="21" r="1"/>
</svg>
