<?xml version="1.0"?>
<svg xmlns="http://www.w3.org/2000/svg" id="Layer_1" data-name="Layer 1" viewBox="0 0 64 64"><title>Dusk Part 3</title><polygon points="49 61 59 61 57 9 49 9 49 61" style="fill:#efd8be;"/><rect x="49" y="45" width="9" height="6" style="fill:#ed7899;"/><rect x="48" y="51" width="11" height="10" style="fill:#cda1a7;"/><polygon points="48 31 5 31 9 25 45 25 48 31" style="fill:#ed7899;"/><rect x="3" y="31" width="48" height="4" rx="2" ry="2" style="fill:#f9dd8f;"/><rect x="47" y="5" width="12" height="4" rx="2" ry="2" style="fill:#f9dd8f;"/><rect x="5" y="36" width="44" height="25" style="fill:#faefde;"/><path d="M9,51H45a4,4,0,0,1,4,4v6a0,0,0,0,1,0,0H5a0,0,0,0,1,0,0V55A4,4,0,0,1,9,51Z" style="fill:#efd8be;"/><rect x="23" y="51" width="8" height="10" style="fill:#bbdef9;"/><path d="M11,40H9a1,1,0,0,0,0,2h2a1,1,0,0,0,0-2Z" style="fill:#8d6c9f;"/><path d="M17,40H15a1,1,0,0,0,0,2h2a1,1,0,0,0,0-2Z" style="fill:#8d6c9f;"/><path d="M25,40H23a1,1,0,0,0,0,2h2a1,1,0,0,0,0-2Z" style="fill:#8d6c9f;"/><path d="M31,40H29a1,1,0,0,0,0,2h2a1,1,0,0,0,0-2Z" style="fill:#8d6c9f;"/><path d="M11,44H9a1,1,0,0,0,0,2h2a1,1,0,0,0,0-2Z" style="fill:#8d6c9f;"/><path d="M17,44H15a1,1,0,0,0,0,2h2a1,1,0,0,0,0-2Z" style="fill:#8d6c9f;"/><path d="M25,44H23a1,1,0,0,0,0,2h2a1,1,0,0,0,0-2Z" style="fill:#8d6c9f;"/><path d="M31,44H29a1,1,0,0,0,0,2h2a1,1,0,0,0,0-2Z" style="fill:#8d6c9f;"/><path d="M11,54H9a1,1,0,0,0,0,2h2a1,1,0,0,0,0-2Z" style="fill:#8d6c9f;"/><path d="M11,50H9a1,1,0,0,0,0,2h2a1,1,0,0,0,0-2Z" style="fill:#8d6c9f;"/><path d="M17,54H15a1,1,0,0,0,0,2h2a1,1,0,0,0,0-2Z" style="fill:#8d6c9f;"/><path d="M17,50H15a1,1,0,0,0,0,2h2a1,1,0,0,0,0-2Z" style="fill:#8d6c9f;"/><path d="M39,40H37a1,1,0,0,0,0,2h2a1,1,0,0,0,0-2Z" style="fill:#8d6c9f;"/><path d="M45,40H43a1,1,0,0,0,0,2h2a1,1,0,0,0,0-2Z" style="fill:#8d6c9f;"/><path d="M39,44H37a1,1,0,0,0,0,2h2a1,1,0,0,0,0-2Z" style="fill:#8d6c9f;"/><path d="M45,44H43a1,1,0,0,0,0,2h2a1,1,0,0,0,0-2Z" style="fill:#8d6c9f;"/><path d="M39,54H37a1,1,0,0,0,0,2h2a1,1,0,0,0,0-2Z" style="fill:#8d6c9f;"/><path d="M39,50H37a1,1,0,0,0,0,2h2a1,1,0,0,0,0-2Z" style="fill:#8d6c9f;"/><path d="M45,54H43a1,1,0,0,0,0,2h2a1,1,0,0,0,0-2Z" style="fill:#8d6c9f;"/><path d="M45,50H43a1,1,0,0,0,0,2h2a1,1,0,0,0,0-2Z" style="fill:#8d6c9f;"/><path d="M63,60H60s0,0,0,0L58,9.81A3,3,0,0,0,57,4H49a3,3,0,0,0-1,5.81l-.66,16.85-1.18-1.77A2,2,0,0,0,44.46,24H18V22.06a1,1,0,1,0-2,0V24H14V17.06a1,1,0,0,0-2,0V24H9.54a2,2,0,0,0-1.66.89L4.43,30.06A3,3,0,0,0,4,35.82V60H1a1,1,0,0,0,0,2H63a1,1,0,0,0,0-2ZM4,33a1,1,0,0,1,1-1H49a1,1,0,0,1,0,2H5A1,1,0,0,1,4,33ZM50,46h7.45l.16,4H50ZM49,6h8a1,1,0,0,1,0,2H49a1,1,0,0,1,0-2Zm1,4H56l1.33,34H50V35.82a3,3,0,0,0-.43-5.76l-.38-.57ZM9.54,26H12v1.06a1,1,0,0,0,2,0V26h2v1.06a1,1,0,0,0,2,0V26H44.46l2.67,4H6.87ZM24,52h6v8H24Zm8,8s0,0,0,0V52a2,2,0,0,0-2-2H24a2,2,0,0,0-2,2v8s0,0,0,0H6V36H48V60Zm18-8h7.69L58,60H50Z" style="fill:#8d6c9f;"/></svg>
