<?xml version="1.0" encoding="iso-8859-1"?>
<!-- Generator: Adobe Illustrator 19.1.1, SVG Export Plug-In . SVG Version: 6.00 Build 0)  -->
<svg version="1.1" id="Layer_1" xmlns="http://www.w3.org/2000/svg" xmlns:xlink="http://www.w3.org/1999/xlink" x="0px" y="0px"
	 viewBox="0 0 40 40" style="enable-background:new 0 0 40 40;" xml:space="preserve">
<g>
	<polygon style="fill:#B0C1D4;" points="26.802,11.905 28.969,9.738 34.861,16.706 32.491,18.547 	"/>
	<path style="fill:#66798F;" d="M28.938,10.476l5.203,6.155l-1.581,1.229l-5.078-5.929L28.938,10.476 M29,9l-2.879,2.879
		l6.301,7.356l3.156-2.453L29,9L29,9z"/>
</g>
<g>
	<rect x="32.5" y="18.5" style="fill:#B0C1D4;" width="3" height="6"/>
	<path style="fill:#66798F;" d="M35,19v5h-2v-5H35 M36,18h-4v7h4V18L36,18z"/>
</g>
<g>
	<circle style="fill:#4B6477;" cx="34" cy="18" r="1.5"/>
	<path style="fill:#36404D;" d="M34,17c0.551,0,1,0.449,1,1s-0.449,1-1,1s-1-0.449-1-1S33.449,17,34,17 M34,16c-1.105,0-2,0.895-2,2
		s0.895,2,2,2c1.105,0,2-0.895,2-2S35.105,16,34,16L34,16z"/>
</g>
<path style="fill:#66798F;" d="M34,24c1.657,0,3,1.343,3,3v1h-1v-1c0-1.103-0.897-2-2-2c-1.103,0-2,0.897-2,2v1h-1v-1
	C31,25.343,32.343,24,34,24z"/>
<g>
	<rect x="14.5" y="4.5" style="fill:#4B6477;" width="11" height="2"/>
	<path style="fill:#36404D;" d="M25,5v1H15V5H25 M26,4H14v3h12V4L26,4z"/>
</g>
<g>
	<polygon style="fill:#B0C1D4;" points="5.14,16.706 11.031,9.738 13.198,11.905 7.509,18.547 	"/>
	<path style="fill:#66798F;" d="M11.062,10.476l1.455,1.455L7.439,17.86l-1.581-1.229L11.062,10.476 M11,9l-6.578,7.781l3.156,2.453
		l6.301-7.356L11,9L11,9z"/>
</g>
<g>
	<rect x="15.5" y="1.5" style="fill:#B0C1D4;" width="9" height="8"/>
	<g>
		<path style="fill:#66798F;" d="M24,2v7h-8V2H24 M25,1H15v9h10V1L25,1z"/>
	</g>
</g>
<g>
	<rect x="13.5" y="23.5" style="fill:#B0C1D4;" width="4" height="15"/>
	<g>
		<path style="fill:#66798F;" d="M17,24v14h-3V24H17 M18,23h-5v16h5V23L18,23z"/>
	</g>
</g>
<g>
	<rect x="4.5" y="18.5" style="fill:#B0C1D4;" width="3" height="6"/>
	<path style="fill:#66798F;" d="M7,19v5H5v-5H7 M8,18H4v7h4V18L8,18z"/>
</g>
<g>
	<circle style="fill:#4B6477;" cx="15.5" cy="30.5" r="2"/>
	<path style="fill:#36404D;" d="M15.5,29c0.827,0,1.5,0.673,1.5,1.5S16.327,32,15.5,32S14,31.327,14,30.5S14.673,29,15.5,29
		 M15.5,28c-1.381,0-2.5,1.119-2.5,2.5s1.119,2.5,2.5,2.5c1.381,0,2.5-1.119,2.5-2.5S16.881,28,15.5,28L15.5,28z"/>
</g>
<g>
	<rect x="22.5" y="23.5" style="fill:#B0C1D4;" width="4" height="15"/>
	<g>
		<path style="fill:#66798F;" d="M26,24v14h-3V24H26 M27,23h-5v16h5V23L27,23z"/>
	</g>
</g>
<g>
	<circle style="fill:#4B6477;" cx="24.5" cy="30.5" r="2"/>
	<path style="fill:#36404D;" d="M24.5,29c0.827,0,1.5,0.673,1.5,1.5S25.327,32,24.5,32S23,31.327,23,30.5S23.673,29,24.5,29
		 M24.5,28c-1.381,0-2.5,1.119-2.5,2.5s1.119,2.5,2.5,2.5c1.381,0,2.5-1.119,2.5-2.5S25.881,28,24.5,28L24.5,28z"/>
</g>
<g>
	<circle style="fill:#4B6477;" cx="6" cy="18" r="1.5"/>
	<path style="fill:#36404D;" d="M6,17c0.551,0,1,0.449,1,1s-0.449,1-1,1s-1-0.449-1-1S5.449,17,6,17 M6,16c-1.105,0-2,0.895-2,2
		c0,1.105,0.895,2,2,2s2-0.895,2-2C8,16.895,7.105,16,6,16L6,16z"/>
</g>
<rect x="12" y="38" style="fill:#66798F;" width="7" height="1"/>
<rect x="21" y="38" style="fill:#66798F;" width="7" height="1"/>
<g>
	<rect x="11.5" y="9.5" style="fill:#E1EBF2;" width="17" height="14"/>
	<path style="fill:#66798F;" d="M28,10v13H12V10H28 M29,9H11v15h18V9L29,9z"/>
</g>
<g>
	<rect x="15" y="13" style="fill:#36404D;" width="10" height="7"/>
</g>
<rect x="21" y="17" style="fill:#BAE0BD;" width="1" height="3"/>
<rect x="17" y="18" style="fill:#BAE0BD;" width="1" height="2"/>
<rect x="19" y="16" style="fill:#BAE0BD;" width="1" height="4"/>
<rect x="23" y="15" style="fill:#BAE0BD;" width="1" height="5"/>
<circle style="fill:#4B6477;" cx="22" cy="5" r="1"/>
<circle style="fill:#4B6477;" cx="18" cy="5" r="1"/>
<path style="fill:#66798F;" d="M6,24c-1.657,0-3,1.343-3,3v1h1v-1c0-1.103,0.897-2,2-2c1.103,0,2,0.897,2,2v1h1v-1
	C9,25.343,7.657,24,6,24z"/>
</svg>
