<?xml version="1.0" encoding="iso-8859-1"?>
<!-- Generator: Adobe Illustrator 19.2.0, SVG Export Plug-In . SVG Version: 6.00 Build 0)  -->
<svg version="1.1" id="Layer_1" xmlns="http://www.w3.org/2000/svg" xmlns:xlink="http://www.w3.org/1999/xlink" x="0px" y="0px"
	 viewBox="0 0 40 40" style="enable-background:new 0 0 40 40;" xml:space="preserve">
<path style="fill:#788B9C;" d="M36,14v1v12c0,1.103-0.897,2-2,2h-9v-2h-1v2c0,0.55,0.45,1,1,1h9c1.65,0,3-1.35,3-3V15
	C37,14.45,36.55,14,36,14z"/>
<g>
	<path style="fill:#B6C9D6;" d="M27,33.5c-0.276,0-0.5-0.225-0.5-0.5v-7c0-0.275,0.224-0.5,0.5-0.5h6c0.276,0,0.5,0.225,0.5,0.5v7
		c0,0.275-0.224,0.5-0.5,0.5H27z"/>
	<path style="fill:#788B9C;" d="M33,26v7h-6v-7H33 M33,25h-6c-0.55,0-1,0.45-1,1v7c0,0.55,0.45,1,1,1h6c0.55,0,1-0.45,1-1v-7
		C34,25.45,33.55,25,33,25L33,25z"/>
</g>
<g>
	<path style="fill:#F78F8F;" d="M1.5,39.5v-24c0-8.271,6.729-15,15-15s15,6.729,15,15v24H1.5z"/>
	<g>
		<path style="fill:#C74343;" d="M16.5,1C24.495,1,31,7.505,31,15.5V39H2V15.5C2,7.505,8.505,1,16.5,1 M16.5,0L16.5,0
			C7.975,0,1,6.975,1,15.5V40h31V15.5C32,6.975,25.025,0,16.5,0L16.5,0z"/>
	</g>
</g>
<g>
	<path style="fill:#FFCACA;" d="M26,34H7V15.5C7,10.275,11.275,6,16.5,6h0c5.225,0,9.5,4.275,9.5,9.5V34z"/>
</g>
<g>
	<rect x="10.5" y="25.5" style="fill:#B6C9D6;" width="12" height="5"/>
	<g>
		<path style="fill:#788B9C;" d="M22,26v4H11v-4H22 M23,25H10v6h13V25L23,25z"/>
	</g>
</g>
<rect x="11" y="26" style="fill:#36404D;" width="11" height="2"/>
<g>
	<circle style="fill:#F78F8F;" cx="36.5" cy="14.5" r="2"/>
	<g>
		<path style="fill:#C74343;" d="M36.5,13c0.827,0,1.5,0.673,1.5,1.5S37.327,16,36.5,16S35,15.327,35,14.5S35.673,13,36.5,13
			 M36.5,12c-1.381,0-2.5,1.119-2.5,2.5s1.119,2.5,2.5,2.5s2.5-1.119,2.5-2.5S37.881,12,36.5,12L36.5,12z"/>
	</g>
</g>
<g>
	<path style="fill:#FFFFFF;" d="M11,22.5c-0.276,0-0.5-0.225-0.5-0.5v-8c0-0.275,0.224-0.5,0.5-0.5h11c0.276,0,0.5,0.225,0.5,0.5v8
		c0,0.275-0.224,0.5-0.5,0.5H11z"/>
	<g>
		<path style="fill:#788B9C;" d="M22,14v8H11v-8H22 M22,13H11c-0.55,0-1,0.45-1,1v8c0,0.55,0.45,1,1,1h11c0.55,0,1-0.45,1-1v-8
			C23,13.45,22.55,13,22,13L22,13z"/>
	</g>
</g>
<rect x="14" y="13" style="fill:#788B9C;" width="1" height="10"/>
<rect x="18" y="13" style="fill:#788B9C;" width="1" height="10"/>
<circle style="fill:#FFEEA3;" cx="4.5" cy="36.5" r="0.5"/>
<circle style="fill:#FFEEA3;" cx="28.5" cy="36.5" r="0.5"/>
<circle style="fill:#FFEEA3;" cx="24.5" cy="36.5" r="0.5"/>
<circle style="fill:#FFEEA3;" cx="20.5" cy="36.5" r="0.5"/>
<circle style="fill:#FFEEA3;" cx="12.5" cy="36.5" r="0.5"/>
<circle style="fill:#FFEEA3;" cx="16.5" cy="36.5" r="0.5"/>
<circle style="fill:#FFEEA3;" cx="8.5" cy="36.5" r="0.5"/>
<circle style="fill:#FFEEA3;" cx="4.5" cy="32.5" r="0.5"/>
<circle style="fill:#FFEEA3;" cx="4.5" cy="28.5" r="0.5"/>
<circle style="fill:#FFEEA3;" cx="4.5" cy="24.5" r="0.5"/>
<circle style="fill:#FFEEA3;" cx="4.5" cy="20.5" r="0.5"/>
<circle style="fill:#FFEEA3;" cx="28.5" cy="32.5" r="0.5"/>
<circle style="fill:#FFEEA3;" cx="28.5" cy="28.5" r="0.5"/>
<circle style="fill:#FFEEA3;" cx="28.5" cy="24.5" r="0.5"/>
<g>
	<circle style="fill:#FFEEA3;" cx="18.99" cy="3.694" r="0.5"/>
	<circle style="fill:#FFEEA3;" cx="23.089" cy="5.148" r="0.5"/>
	<circle style="fill:#FFEEA3;" cx="26.068" cy="7.882" r="0.5"/>
	<circle style="fill:#FFEEA3;" cx="27.885" cy="11.723" r="0.5"/>
	<circle style="fill:#FFEEA3;" cx="28.5" cy="16.5" r="0.5"/>
</g>
<g>
	<circle style="fill:#FFEEA3;" cx="14.01" cy="3.694" r="0.5"/>
	<circle style="fill:#FFEEA3;" cx="9.911" cy="5.148" r="0.5"/>
	<circle style="fill:#FFEEA3;" cx="6.932" cy="7.882" r="0.5"/>
	<circle style="fill:#FFEEA3;" cx="5.115" cy="11.723" r="0.5"/>
	<circle style="fill:#FFEEA3;" cx="4.5" cy="16.5" r="0.5"/>
</g>
<circle style="fill:#FFEEA3;" cx="28.5" cy="20.5" r="0.5"/>
</svg>
